<svg width="472" height="242" viewBox="0 0 472 242" fill="none" xmlns="http://www.w3.org/2000/svg">
<g clip-path="url(#clip0_29436_165023)">
<path d="M393.8 38.2007C401.1 38.7007 407.3 33.2007 407.8 25.9007C408.3 18.6007 402.8 12.4007 395.5 11.9007C388.2 11.4007 382 16.9007 381.5 24.2007V26.0007C382 32.5007 387.2 37.7007 393.8 38.2007Z" fill="url(#paint0_linear_29436_165023)"/>
<path d="M199.102 224.8H188.502V214H183.102V240.8H188.502V229H199.102V240.8H204.502V214H199.102V224.8Z" fill="#002256"/>
<path d="M226.201 227.899C226.101 227.199 225.901 226.399 225.601 225.699C225.401 224.999 225.101 224.299 224.701 223.699C224.301 223.099 223.801 222.599 223.201 222.099C222.601 221.699 222.001 221.299 221.301 220.999C220.601 220.799 220.001 220.599 219.301 220.399C218.601 220.299 217.901 220.199 217.201 220.199C215.801 220.199 214.501 220.499 213.201 220.999C212.101 221.499 211.101 222.299 210.401 223.199C209.601 224.199 209.001 225.299 208.701 226.499C207.901 229.299 207.901 232.199 208.801 234.899C209.601 237.399 211.501 239.299 213.901 240.099C215.301 240.599 216.801 240.799 218.301 240.799C219.501 240.799 220.601 240.699 221.801 240.499C222.901 240.299 224.001 239.899 225.001 239.199V234.999C224.001 235.599 223.001 236.099 221.901 236.499C220.801 236.899 219.701 237.099 218.501 237.099C217.801 237.099 217.101 236.999 216.401 236.799C215.801 236.599 215.201 236.199 214.601 235.799C214.101 235.399 213.701 234.799 213.401 234.199C213.101 233.599 212.901 232.899 212.801 232.199H226.401V231.999C226.401 231.299 226.401 230.599 226.301 229.799C226.501 229.399 226.401 228.599 226.201 227.899ZM213.001 228.899C213.001 228.299 213.201 227.599 213.401 226.999C213.601 226.399 213.901 225.899 214.301 225.499C214.701 225.099 215.201 224.699 215.701 224.499C216.301 224.299 216.901 224.099 217.601 224.099C218.201 224.099 218.901 224.199 219.501 224.499C220.001 224.699 220.401 225.099 220.801 225.499C221.201 225.899 221.401 226.399 221.601 226.999C221.801 227.599 221.901 228.199 221.901 228.899H213.001Z" fill="#002256"/>
<path d="M246.902 228.6C246.902 225.8 246.202 223.8 244.802 222.5C243.402 221.2 241.402 220.5 238.702 220.5C237.502 220.5 236.302 220.6 235.102 220.9C233.902 221.1 232.802 221.5 231.702 222L231.902 226.4C232.802 225.7 233.702 225.2 234.702 224.8C235.702 224.4 236.802 224.2 237.902 224.2C238.602 224.2 239.202 224.3 239.902 224.4C240.402 224.5 240.902 224.8 241.302 225.1C241.702 225.5 242.002 225.9 242.102 226.5C242.302 227.1 242.402 227.8 242.402 228.5H239.802C238.902 228.5 238.002 228.5 237.202 228.6C236.302 228.7 235.502 228.8 234.702 229C233.902 229.2 233.102 229.5 232.502 230C231.802 230.4 231.102 231 230.602 231.7C230.202 232.2 230.002 232.8 229.802 233.5C229.702 234.1 229.602 234.7 229.602 235.4C229.602 236.3 229.802 237.1 230.202 237.8C230.602 238.5 231.102 239.2 231.802 239.7C232.502 240.2 233.202 240.6 234.002 240.9C234.802 241.2 235.702 241.3 236.602 241.3C237.202 241.3 237.802 241.2 238.502 241.1C239.102 240.9 239.602 240.7 240.102 240.4C240.602 240.1 241.102 239.7 241.602 239.3C242.102 238.9 242.502 238.4 242.802 237.8H242.902C242.902 238.3 242.902 238.8 243.002 239.3C243.102 239.8 243.102 240.3 243.202 240.8H247.702C247.602 238.8 247.502 236.8 247.402 234.8C247.302 232.8 246.902 230.7 246.902 228.6ZM242.202 231.8C242.202 232.5 242.102 233.3 241.902 234C241.702 234.6 241.402 235.3 241.102 235.9C240.702 236.4 240.202 236.9 239.602 237.2C238.902 237.5 238.202 237.7 237.502 237.7C236.702 237.7 235.902 237.6 235.302 237.2C235.002 237 234.702 236.7 234.502 236.4C234.302 236 234.202 235.6 234.202 235.2C234.102 234.6 234.302 234.1 234.702 233.6C235.402 232.7 236.302 232.1 237.402 231.9C237.902 231.8 238.502 231.7 239.102 231.7L242.202 231.8Z" fill="#002256"/>
<path d="M257.098 212H251.898V240.7H257.098V212Z" fill="#002256"/>
<path d="M270.902 237.1C270.502 237.2 270.102 237.2 269.702 237.2C268.902 237.2 268.202 236.8 267.802 236.2C267.602 235.9 267.502 235.5 267.402 235.2C267.302 234.8 267.302 234.4 267.302 234V224.6H271.902V221H267.302V215.4L262.102 217.1V234.8C262.102 235.7 262.202 236.6 262.502 237.4C262.702 238.2 263.102 238.9 263.702 239.4C264.302 240 264.902 240.4 265.702 240.7C266.502 241 267.402 241.2 268.302 241.1C269.002 241.1 269.602 241.1 270.302 241C270.902 240.9 271.502 240.8 272.202 240.6L272.002 236.6C271.702 236.9 271.302 237.1 270.902 237.1Z" fill="#002256"/>
<path d="M291.9 222.7C291.3 222 290.7 221.5 289.9 221C287.8 220.1 285.4 220.2 283.4 221.2C282.3 221.7 281.4 222.5 280.8 223.6H280.7V211.9H275.5V240.6H280.7V231C280.7 230.2 280.8 229.5 280.9 228.7C281 227.9 281.3 227.2 281.7 226.5C282 225.9 282.5 225.3 283.1 224.9C283.7 224.5 284.5 224.3 285.2 224.3C285.8 224.3 286.5 224.4 287.1 224.7C287.6 225.1 288 225.6 288.2 226.2C288.4 226.8 288.6 227.4 288.6 228.1V240.5H293.7V228C293.7 227 293.6 225.9 293.3 224.9C292.8 224.1 292.4 223.4 291.9 222.7Z" fill="#002256"/>
<path d="M309.599 214H304.199V240.8H309.599V214Z" fill="#002256"/>
<path d="M331.4 222.7C330.8 222 330.2 221.5 329.4 221C328.4 220.6 327.4 220.4 326.4 220.4C325.1 220.4 323.9 220.6 322.8 221.2C321.7 221.8 320.8 222.6 320 223.6H319.9V221.1H315V240.8H320.2V231.1C320.2 230.3 320.3 229.6 320.4 228.8C320.5 228 320.8 227.3 321.2 226.6C321.5 226 322 225.4 322.6 225C323.2 224.6 324 224.4 324.7 224.4C325.3 224.4 326 224.5 326.6 224.8C327.1 225.2 327.5 225.7 327.7 226.3C327.9 226.9 328 227.5 328.1 228.2V240.6H333.2V228.1C333.2 227.1 333.1 226 332.8 225C332.3 224.2 331.9 223.4 331.4 222.7Z" fill="#002256"/>
<path d="M349.798 230.9C349.398 230.5 348.898 230.1 348.298 229.8C347.798 229.5 347.198 229.3 346.598 229.1C346.098 228.9 345.498 228.7 344.998 228.6C344.498 228.5 343.998 228.3 343.498 228.1C343.098 228 342.798 227.8 342.498 227.5C342.198 227.2 342.098 226.9 342.098 226.5C342.098 226.1 342.198 225.7 342.398 225.4C342.598 225.1 342.798 224.9 343.098 224.7C343.398 224.5 343.698 224.4 344.098 224.3C344.498 224.2 344.798 224.2 345.198 224.2C345.998 224.2 346.798 224.3 347.498 224.4C348.298 224.6 348.998 224.8 349.698 225.1L349.998 221.3C349.098 221.1 348.098 220.9 347.298 220.7C346.398 220.6 345.398 220.5 344.498 220.5C343.498 220.5 342.598 220.6 341.698 220.9C340.798 221.1 339.998 221.5 339.298 222C337.698 223.1 336.798 224.8 336.898 226.7C336.898 227.4 336.998 228.1 337.198 228.7C337.598 229.7 338.298 230.5 339.198 231.1C339.598 231.4 340.098 231.6 340.598 231.8C341.098 232 341.598 232.2 342.098 232.3C342.598 232.4 343.098 232.6 343.498 232.7C343.898 232.8 344.298 233 344.698 233.2C344.998 233.4 345.298 233.6 345.498 233.9L345.798 234.5C345.798 234.7 345.898 235 345.898 235.2C345.898 235.6 345.798 236 345.598 236.3C345.398 236.6 345.098 236.9 344.798 237.1C344.498 237.3 344.098 237.4 343.698 237.5C343.298 237.6 342.898 237.6 342.498 237.6C340.698 237.6 338.998 237.1 337.398 236.3L337.098 240.5C337.998 240.8 338.998 241 339.898 241.1C340.898 241.3 341.798 241.3 342.798 241.3C343.798 241.3 344.798 241.2 345.798 240.9C346.698 240.7 347.598 240.3 348.398 239.8C349.198 239.3 349.798 238.6 350.298 237.8C350.798 236.9 351.098 235.8 350.998 234.8C350.998 234 350.898 233.2 350.598 232.4C350.498 231.8 350.198 231.3 349.798 230.9Z" fill="#002256"/>
<path d="M368 230.7C368 231.5 367.9 232.2 367.8 232.9C367.7 233.6 367.4 234.4 367.1 235.1C366.8 235.7 366.3 236.3 365.7 236.7C364.5 237.5 363 237.5 361.7 236.8C361.2 236.4 360.8 235.9 360.6 235.3C360.4 234.9 360.3 234.4 360.3 233.9C360.3 233.4 360.3 232.9 360.2 232.4V221H355V233.5C355 234.5 355.1 235.6 355.4 236.6C355.6 237.5 356 238.3 356.6 239.1C357.2 239.8 357.8 240.3 358.6 240.8C359.6 241.2 360.6 241.4 361.6 241.4C362.8 241.4 364.1 241.1 365.2 240.6C366.3 240 367.3 239.2 368 238.2H368.1V240.8H373V221H368V230.7Z" fill="#002256"/>
<path d="M388.498 220.6C387.798 220.6 387.098 220.8 386.498 221.1C385.898 221.4 385.298 221.8 384.898 222.4C384.498 222.9 384.098 223.4 383.798 223.9C383.498 224.4 383.298 225 383.198 225.6H382.998V221H378.398V240.7H383.498V231.8C383.598 230.6 383.798 229.4 384.098 228.3C384.298 227.8 384.498 227.3 384.798 226.8C385.098 226.4 385.498 226 385.998 225.7C386.498 225.4 387.098 225.3 387.798 225.3C388.198 225.3 388.598 225.3 388.998 225.4C389.398 225.5 389.798 225.5 390.198 225.7V220.5C389.898 220.5 389.698 220.4 389.398 220.4C388.998 220.6 388.698 220.6 388.498 220.6Z" fill="#002256"/>
<path d="M409.302 228.6C409.302 225.8 408.602 223.8 407.202 222.5C405.802 221.2 403.802 220.5 401.102 220.5C399.902 220.5 398.702 220.6 397.502 220.9C396.302 221.2 395.202 221.5 394.102 222L394.302 226.4C395.202 225.7 396.102 225.2 397.102 224.8C398.102 224.4 399.202 224.2 400.302 224.2C401.002 224.2 401.602 224.3 402.302 224.4C402.802 224.5 403.302 224.8 403.702 225.1C404.102 225.5 404.402 225.9 404.502 226.5C404.702 227.1 404.802 227.8 404.802 228.5H402.302C401.402 228.5 400.502 228.5 399.702 228.6C398.802 228.7 398.002 228.8 397.202 229C396.402 229.2 395.602 229.5 395.002 230C394.302 230.4 393.602 231 393.102 231.7C392.702 232.2 392.502 232.8 392.302 233.5C392.102 234.1 392.102 234.7 392.102 235.4C392.102 236.3 392.302 237.1 392.702 237.8C393.102 238.5 393.602 239.1 394.202 239.7C394.902 240.2 395.602 240.6 396.402 240.9C397.202 241.2 398.102 241.3 398.902 241.3C399.502 241.3 400.102 241.2 400.802 241.1C401.402 240.9 401.902 240.7 402.502 240.4C403.002 240.1 403.502 239.7 404.002 239.3C404.502 238.9 404.902 238.4 405.202 237.8H405.302C405.302 238.3 405.302 238.8 405.402 239.3C405.502 239.8 405.502 240.3 405.602 240.8H410.102C410.002 238.8 409.902 236.8 409.802 234.8C409.702 232.8 409.302 230.7 409.302 228.6ZM404.702 231.8C404.702 232.5 404.602 233.3 404.402 234C404.202 234.7 403.902 235.3 403.502 235.8C403.102 236.3 402.602 236.7 402.002 237C401.302 237.3 400.602 237.5 399.902 237.5C399.102 237.6 398.302 237.4 397.702 237C397.402 236.8 397.102 236.5 396.902 236.2C396.402 235.3 396.502 234.3 397.102 233.4C397.402 233 397.802 232.6 398.302 232.3C398.802 232 399.302 231.8 399.902 231.7C400.402 231.6 401.002 231.5 401.602 231.5H404.702V231.8Z" fill="#002256"/>
<path d="M430.798 222.7C430.298 222 429.598 221.4 428.798 221C427.798 220.6 426.798 220.4 425.798 220.4C424.598 220.4 423.298 220.6 422.198 221.2C421.098 221.8 420.098 222.6 419.398 223.6H419.298V221.1H414.398V240.8H419.498V231.1C419.498 230.3 419.598 229.6 419.698 228.8C419.798 228 420.098 227.3 420.498 226.6C420.798 226 421.298 225.4 421.898 225C422.498 224.6 423.298 224.4 423.998 224.4C424.598 224.4 425.298 224.5 425.798 224.8C426.298 225.2 426.698 225.7 426.898 226.3C427.098 226.9 427.298 227.5 427.298 228.2V240.6H432.398V228.1C432.398 227.1 432.298 226 431.998 225C431.798 224.2 431.398 223.4 430.798 222.7Z" fill="#002256"/>
<path d="M448.299 236.9C447.699 237.1 446.999 237.2 446.299 237.2C445.499 237.2 444.699 237 443.999 236.7C443.299 236.4 442.699 235.9 442.399 235.2C441.899 234.6 441.599 233.9 441.399 233.2C441.199 232.4 441.099 231.6 441.099 230.8C441.099 230 441.199 229.2 441.399 228.4C441.599 227.7 441.899 227 442.399 226.4C443.299 225.1 444.699 224.4 446.299 224.4C446.899 224.4 447.499 224.4 448.099 224.5C448.699 224.6 449.199 224.8 449.699 225.1L450.099 221.1C449.299 220.8 448.499 220.7 447.699 220.6C446.899 220.5 445.999 220.5 445.199 220.5C443.799 220.5 442.499 220.7 441.199 221.3C439.999 221.8 438.999 222.5 438.199 223.5C437.399 224.4 436.699 225.5 436.399 226.7C435.899 228 435.699 229.4 435.699 230.8C435.699 232.2 435.899 233.6 436.399 234.9C436.799 236.1 437.399 237.2 438.199 238.2C438.999 239.1 439.999 239.9 441.199 240.4C442.499 240.9 443.999 241.2 445.399 241.2C446.299 241.2 447.099 241.2 447.899 241.1C448.799 241 449.599 240.8 450.399 240.6L450.199 236.3C449.499 236.6 448.899 236.8 448.299 236.9Z" fill="#002256"/>
<path d="M470.6 227.899C470.5 227.199 470.3 226.399 470 225.699C469.8 224.999 469.5 224.299 469.1 223.699C468.7 223.099 468.2 222.599 467.6 222.099C467 221.699 466.4 221.299 465.7 220.999C464.4 220.499 463 220.199 461.5 220.199C460.1 220.199 458.8 220.499 457.5 220.999C456.4 221.499 455.4 222.299 454.7 223.199C453.9 224.199 453.3 225.299 453.1 226.499C452.3 229.299 452.3 232.199 453.2 234.899C453.6 236.099 454.3 237.199 455.2 238.099C456.1 238.999 457.2 239.699 458.4 240.099C459.8 240.599 461.3 240.799 462.8 240.799C464 240.799 465.1 240.699 466.3 240.499C467.5 240.299 468.6 239.899 469.5 239.199V234.999C468.5 235.599 467.5 236.099 466.4 236.499C465.3 236.899 464.2 237.099 463 237.099C462.3 237.099 461.6 236.999 460.9 236.799C460.3 236.599 459.6 236.199 459.1 235.799C458.6 235.399 458.2 234.799 457.9 234.199C457.6 233.599 457.4 232.899 457.3 232.199H470.8V231.999C470.8 231.299 470.8 230.599 470.7 229.799C470.9 229.399 470.8 228.599 470.6 227.899ZM457.5 228.899C457.5 228.299 457.7 227.599 457.9 226.999C458.1 226.399 458.4 225.899 458.8 225.499C459.2 225.099 459.6 224.699 460.2 224.499C460.8 224.299 461.4 224.099 462.1 224.099C462.7 224.099 463.4 224.199 464 224.499C464.5 224.699 464.9 225.099 465.3 225.499C465.7 225.899 465.9 226.399 466.1 226.999C466.3 227.599 466.4 228.199 466.4 228.899H457.5Z" fill="#002256"/>
<path d="M19.3984 236.4C18.8984 236.5 18.3984 236.7 17.7984 236.8C17.2984 236.9 16.7984 237 16.1984 237C15.6984 237 15.1984 237.1 14.6984 237.1C13.3984 237.1 12.0984 236.9 10.8984 236.4C9.79844 235.9 8.89844 235.2 8.09844 234.4C7.29844 233.5 6.69844 232.5 6.29844 231.3C5.89844 230.1 5.69844 228.8 5.69844 227.5C5.69844 226.2 5.89844 224.9 6.29844 223.7C6.69844 222.6 7.29844 221.5 8.09844 220.6C8.89844 219.7 9.89844 219.1 10.8984 218.6C12.0984 218.1 13.3984 217.8 14.6984 217.8C15.1984 217.8 15.6984 217.8 16.2984 217.9C16.7984 217.9 17.1984 218 17.6984 218.1C18.1984 218.2 18.5984 218.4 19.0984 218.5C19.5984 218.7 20.0984 218.9 20.5984 219.2L20.9984 214.7C19.9984 214.4 19.0984 214.1 18.0984 213.9C17.0984 213.7 16.0984 213.6 15.0984 213.6C13.3984 213.6 11.6984 213.8 10.0984 214.2C8.59844 214.5 7.19844 215.1 5.89844 216C4.59844 216.8 3.59844 217.9 2.79844 219.1C1.79844 220.5 1.19844 222.1 0.898437 223.8C0.498437 225.2 0.398438 226.6 0.398438 228C0.398438 228.9 0.498438 229.9 0.598438 230.8C0.698438 231.7 0.998437 232.6 1.29844 233.4C1.59844 234.3 2.09844 235.1 2.59844 235.9C3.19844 236.7 3.79844 237.3 4.59844 237.9C5.29844 238.5 6.09844 239 6.89844 239.5C7.69844 239.9 8.59844 240.3 9.49844 240.6C10.3984 240.9 11.2984 241.1 12.1984 241.2C13.0984 241.3 14.0984 241.4 14.9984 241.4C15.9984 241.4 16.9984 241.3 17.9984 241.2C18.9984 241.1 19.9984 240.9 20.9984 240.6L20.7984 236.1C20.2984 236.1 19.7984 236.2 19.3984 236.4Z" fill="#002256"/>
<path d="M40.8988 223.4C39.9988 222.5 38.8988 221.7 37.6988 221.3C36.2988 220.8 34.8988 220.5 33.3988 220.5C31.8988 220.5 30.4988 220.7 29.0988 221.3C27.8988 221.8 26.7988 222.5 25.8988 223.5C24.9988 224.5 24.2988 225.6 23.8988 226.8C23.3988 228.2 23.0988 229.6 23.1988 231C23.1988 232.4 23.3988 233.8 23.9988 235.1C24.4988 236.3 25.1988 237.4 26.0988 238.3C26.9988 239.1 28.0988 239.8 29.2988 240.3C31.9988 241.3 34.9988 241.3 37.6988 240.4C38.8988 239.9 39.9988 239.3 40.8988 238.4C41.7988 237.5 42.5988 236.4 43.0988 235.2C43.5988 233.9 43.8988 232.4 43.8988 231C43.8988 229.6 43.6988 228.1 43.1988 226.8C42.5988 225.5 41.7988 224.4 40.8988 223.4ZM38.1988 232.8C38.0988 233.6 37.7988 234.3 37.3988 235C36.9988 235.6 36.5988 236.2 35.9988 236.6C35.2988 237 34.3988 237.2 33.5988 237.2C33.1988 237.2 32.6988 237.2 32.2988 237.1C31.8988 237 31.4988 236.8 31.0988 236.6C30.6988 236.3 30.2988 236 29.8988 235.6C29.5988 235.2 29.3988 234.8 29.1988 234.4C28.9988 234 28.8988 233.5 28.7988 233L28.4988 231.6C28.4988 231.4 28.4988 231.2 28.3988 231V230.4C28.3988 229.7 28.4988 228.9 28.6988 228.2C28.8988 227.5 29.1988 226.9 29.5988 226.3C29.9988 225.8 30.4988 225.3 31.0988 225C31.7988 224.6 32.4988 224.5 33.2988 224.5C34.0988 224.5 34.8988 224.6 35.4988 225C36.0988 225.3 36.5988 225.8 37.0988 226.3C37.4988 226.9 37.7988 227.5 37.9988 228.2C38.1988 228.9 38.2988 229.7 38.2988 230.4C38.3988 231.2 38.2988 232 38.1988 232.8Z" fill="#002256"/>
<path d="M59.8 230.7C59.8 231.5 59.7 232.2 59.6 232.9C59.5 233.6 59.2 234.4 58.9 235.1C58.6 235.7 58.1 236.3 57.5 236.7C56.3 237.4 54.8 237.5 53.5 236.8C53 236.4 52.6 235.9 52.4 235.3C52.2 234.9 52.1 234.4 52.1 233.9C52.1 233.4 52.1 232.9 52 232.4V221H47V233.5C47 234.5 47.1 235.6 47.4 236.6C47.6 237.5 48 238.3 48.5 239.1C49 239.8 49.7 240.3 50.5 240.8C51.5 241.2 52.5 241.4 53.5 241.4C56 241.4 58.4 240.2 60 238.2H60.1V240.8H65V221H59.9L59.8 230.7Z" fill="#002256"/>
<path d="M86.7008 222.7C86.1008 222 85.5008 221.5 84.7008 221C83.7008 220.6 82.7008 220.4 81.7008 220.4C80.5008 220.4 79.2008 220.6 78.1008 221.2C77.0008 221.8 76.0008 222.6 75.3008 223.6H75.2008V221.1H70.3008V240.8H75.4008V231.1C75.4008 230.3 75.5008 229.6 75.6008 228.8C75.7008 228 76.0008 227.3 76.4008 226.6C76.7008 226 77.2008 225.4 77.8008 225C78.4008 224.6 79.2008 224.4 80.0008 224.4C80.6008 224.4 81.3008 224.5 81.8008 224.8C82.3008 225.2 82.7008 225.7 82.9008 226.3C83.1008 226.9 83.3008 227.5 83.3008 228.2V240.6H88.4008V228.1C88.4008 227.1 88.3008 226 88.0008 225C87.7008 224.2 87.3008 223.4 86.7008 222.7Z" fill="#002256"/>
<path d="M104.198 236.9C103.598 237.1 102.898 237.2 102.198 237.2C101.398 237.2 100.598 237 99.8984 236.7C99.1984 236.4 98.5984 235.9 98.1984 235.2C97.6984 234.6 97.3984 233.9 97.1984 233.2C96.9984 232.4 96.8984 231.6 96.8984 230.8C96.8984 230 96.9984 229.2 97.1984 228.4C97.3984 227.7 97.6984 227 98.1984 226.4C98.5984 225.8 99.1984 225.3 99.7984 225C100.498 224.6 101.298 224.5 101.998 224.5C102.598 224.5 103.198 224.5 103.798 224.6C104.398 224.7 104.898 224.9 105.498 225.2L105.998 221.2C105.198 220.9 104.398 220.8 103.598 220.7C102.798 220.6 101.898 220.6 100.998 220.6C99.5984 220.6 98.1984 220.8 96.8984 221.4C95.6984 221.9 94.6984 222.6 93.8984 223.6C93.0984 224.5 92.3984 225.6 92.0984 226.8C91.5984 228.1 91.3984 229.5 91.3984 230.9C91.3984 232.3 91.5984 233.7 92.0984 235C92.4984 236.2 93.1984 237.4 93.9984 238.4C94.7984 239.3 95.7984 240.1 96.9984 240.6C98.2984 241.1 99.7984 241.4 101.198 241.4C102.098 241.4 102.898 241.4 103.798 241.3C104.698 241.2 105.498 241 106.398 240.8L106.198 236.5C105.498 236.5 104.798 236.7 104.198 236.9Z" fill="#002256"/>
<path d="M115.001 221H109.801V240.7H115.001V221Z" fill="#002256"/>
<path d="M125.501 212H120.301V240.7H125.501V212Z" fill="#002256"/>
<path d="M112.4 217.6C113.8 217.6 115 216.5 115 215.1C115 213.7 113.9 212.5 112.5 212.5C111.1 212.5 109.9 213.6 109.9 215C109.8 216.5 111 217.6 112.4 217.6Z" fill="#002256"/>
<path d="M146.498 220.699C140.698 220.699 136.398 224.599 136.398 230.999C136.398 236.599 140.098 240.999 146.498 240.999C152.898 240.999 156.598 236.599 156.598 230.999C156.598 224.599 152.198 220.699 146.498 220.699ZM146.498 237.099C142.698 237.099 141.598 233.599 141.598 230.399C141.598 227.499 143.198 224.599 146.498 224.599C149.798 224.599 151.398 227.299 151.398 230.399C151.398 233.499 150.398 237.099 146.498 237.099Z" fill="#002256"/>
<path d="M162.501 218.399V221.099H158.801V224.799H162.501V240.599H167.601V224.799H172.001V221.099H167.501V218.699C167.501 217.199 168.001 215.799 169.701 215.799C170.501 215.799 171.201 215.999 171.801 216.499L172.201 212.299C171.001 211.999 169.701 211.899 168.501 211.899C164.701 211.799 162.501 214.499 162.501 218.399Z" fill="#002256"/>
<path d="M10.2016 206.2C11.1016 206.6 12.2016 206.4 12.9016 205.7C13.1016 205.5 13.3016 205.2 13.4016 204.9C13.5016 204.6 13.6016 204.2 13.6016 203.9C13.6016 203.6 13.5016 203.2 13.4016 202.9C13.1016 202.3 12.6016 201.8 12.0016 201.5C11.4016 201.2 10.7016 201.2 10.1016 201.5C9.80156 201.6 9.50156 201.8 9.30156 202C9.10156 202.2 8.90156 202.5 8.80156 202.8C8.70156 203.1 8.60156 203.5 8.60156 203.8C8.60156 204.1 8.70156 204.5 8.80156 204.8C8.90156 205.1 9.10156 205.4 9.30156 205.6L10.2016 206.2Z" fill="#002256"/>
<path d="M16.1016 206.201C16.4016 206.301 16.8016 206.401 17.1016 206.401C17.4016 206.401 17.8016 206.301 18.1016 206.201C18.7016 205.901 19.2016 205.401 19.5016 204.801C19.6016 204.501 19.7016 204.101 19.7016 203.801C19.7016 203.501 19.6016 203.101 19.5016 202.801C19.4016 202.501 19.2016 202.201 19.0016 202.001C18.8016 201.801 18.5016 201.601 18.2016 201.501C17.9016 201.401 17.5016 201.301 17.2016 201.301C16.9016 201.301 16.5016 201.401 16.2016 201.501C15.6016 201.801 15.1016 202.301 14.8016 202.901C14.7016 203.201 14.6016 203.601 14.6016 203.901C14.6016 204.201 14.7016 204.601 14.8016 204.901C14.9016 205.201 15.1016 205.501 15.3016 205.701C15.6016 205.901 15.8016 206.101 16.1016 206.201Z" fill="#002256"/>
<path d="M130.399 186H118.799V182.9C118.799 181.6 118.599 180.2 118.299 178.9C117.999 177.7 117.499 176.6 116.699 175.7C115.999 174.8 114.999 174 113.999 173.5C112.799 172.9 111.399 172.7 110.099 172.7C108.799 172.7 107.599 172.9 106.399 173.3C105.299 173.7 104.199 174.2 103.199 174.9C102.199 175.6 101.299 176.4 100.499 177.3C99.6992 178.2 98.8992 179.2 98.2992 180.2C97.6992 181.1 97.0992 182.1 96.5992 183.1C96.0992 183.9 95.6992 184.8 95.3992 185.7C94.5992 185.7 93.7992 185.6 93.0992 185.4C92.2992 185.3 91.4992 185 90.8992 184.5C90.8992 184.1 90.9992 183.8 90.9992 183.4V178H85.9992V183C85.9992 183.5 85.9992 183.9 85.8992 184.4C85.7992 184.7 85.6992 185 85.4992 185.3C85.2992 185.5 84.9992 185.7 84.6992 185.8C84.2992 185.9 83.9992 185.9 83.5992 185.9H76.3992C76.0992 185.9 75.7992 185.7 75.5992 185.4C75.2992 185 75.1992 184.5 74.9992 184C74.7992 183.3 74.6992 182.7 74.5992 182C74.4992 181.3 74.2992 180.5 74.1992 179.7C74.0992 178.8 73.7992 177.9 73.3992 177.1C72.9992 176.3 72.4992 175.6 71.8992 175C71.2992 174.4 70.4992 173.9 69.6992 173.6C68.6992 173.2 67.6992 173.1 66.6992 173.1C65.6992 173.1 64.6992 173.2 63.6992 173.4C62.7992 173.6 61.8992 173.8 60.9992 174.1V178.1C61.3992 177.9 61.8992 177.8 62.2992 177.6C62.6992 177.4 63.1992 177.4 63.6992 177.3C64.1992 177.2 64.5992 177.2 64.9992 177.1C65.3992 177 65.6992 177 65.9992 177C66.6992 177 67.3992 177.2 67.8992 177.6C68.3992 178 68.6992 178.5 68.9992 179C69.2992 179.6 69.5992 180.3 69.6992 181C69.8992 181.7 69.9992 182.4 70.0992 183.2C70.1992 183.7 70.2992 184.2 70.4992 184.7C70.5992 185.1 70.7992 185.5 70.9992 185.9H38.6992C38.3992 185.9 38.0992 185.9 37.7992 185.8C37.5992 185.7 37.2992 185.6 37.1992 185.3C36.9992 185 36.8992 184.7 36.8992 184.3C36.7992 183.7 36.7992 183.1 36.7992 182.5V174H30.8992C27.8992 174 25.6992 174.7 24.2992 176.1C22.8992 177.5 22.1992 179.5 22.1992 182.3V188.9C22.1992 189.6 21.9992 190.3 21.6992 190.9C21.2992 191.6 20.7992 192.2 20.0992 192.6C19.3992 193.1 18.4992 193.5 17.6992 193.8C16.6992 194.1 15.5992 194.3 14.4992 194.3C13.3992 194.3 12.2992 194.2 11.2992 194C10.4992 193.8 9.69922 193.5 8.99922 193.1C8.39922 192.8 7.79922 192.4 7.29922 191.8C6.89922 191.4 6.59922 190.9 6.29922 190.3C6.09922 189.8 5.89922 189.3 5.79922 188.8C5.69922 188.3 5.69922 187.9 5.69922 187.4C5.69922 186.9 5.69922 186.4 5.79922 185.9C5.89922 185.4 5.99922 184.9 6.19922 184.4C6.29922 183.9 6.49922 183.4 6.79922 182.9C6.99922 182.5 7.19922 182.1 7.49922 181.7L3.49922 179.5C3.09922 180 2.69922 180.6 2.39922 181.2C1.99922 181.8 1.69922 182.5 1.49922 183.2C1.19922 183.9 0.999219 184.6 0.899219 185.4C0.799219 186.1 0.699219 186.9 0.699219 187.7C0.699219 188.4 0.799219 189 0.899219 189.7C1.09922 190.5 1.39922 191.3 1.79922 192.1C2.19922 193 2.69922 193.8 3.39922 194.5C4.19922 195.3 4.99922 195.9 5.89922 196.5C6.99922 197.2 8.29922 197.7 9.59922 198C11.1992 198.4 12.8992 198.6 14.5992 198.6C16.3992 198.6 18.1992 198.3 19.8992 197.7C21.3992 197.2 22.6992 196.4 23.8992 195.4C24.9992 194.5 25.7992 193.4 26.3992 192.2C26.9992 191 27.2992 189.8 27.2992 188.5V182.7C27.2992 181.9 27.3992 181.1 27.5992 180.3C27.7992 179.8 28.0992 179.3 28.4992 178.9C28.8992 178.5 29.3992 178.3 29.9992 178.2C30.5992 178.1 31.2992 178 31.8992 178V183.8C31.8992 184.8 32.0992 185.7 32.3992 186.6C32.9992 188 34.1992 189.1 35.5992 189.5C36.2992 189.7 36.9992 189.8 37.6992 189.8H85.4992C86.3992 189.8 87.3992 189.6 88.1992 189.2C88.8992 188.9 89.4992 188.4 89.9992 187.7C90.8992 188.5 91.9992 189 93.1992 189.3C94.6992 189.6 96.1992 189.8 97.6992 189.8H135.699V161.9H130.599V186H130.399ZM113.799 186H100.199C100.599 184.8 101.199 183.6 101.899 182.6C102.499 181.6 103.199 180.6 104.099 179.8C104.799 179 105.699 178.3 106.699 177.8C107.499 177.3 108.399 177.1 109.299 177.1C109.899 177.1 110.499 177.2 111.099 177.4C111.699 177.6 112.199 178 112.599 178.5C113.099 179.1 113.399 179.8 113.599 180.5C113.899 181.5 113.999 182.5 113.999 183.6L113.799 186Z" fill="#002256"/>
<path d="M145.398 162.4H140.398V190.3H145.398V162.4Z" fill="#002256"/>
<path d="M169.401 173.6C169.601 173.8 169.901 174 170.201 174.1C170.801 174.4 171.501 174.4 172.101 174.1C172.701 173.8 173.201 173.3 173.501 172.7C173.801 172.1 173.801 171.3 173.501 170.7C173.401 170.4 173.201 170.2 173.001 170C172.801 169.8 172.501 169.6 172.201 169.5C171.601 169.2 170.801 169.2 170.201 169.5C169.601 169.7 169.101 170.2 168.901 170.8C168.601 171.4 168.601 172.2 168.901 172.8C169.001 173.1 169.101 173.4 169.401 173.6Z" fill="#002256"/>
<path d="M182.998 184.8C182.898 184.1 182.798 183.3 182.598 182.6C182.398 181.8 182.198 181.1 181.998 180.5C181.798 179.9 181.598 179.2 181.398 178.6L176.498 180C176.798 180.6 176.998 181.2 177.198 181.9C177.398 182.6 177.598 183.2 177.698 183.8L177.998 185.6C178.098 186.1 178.098 186.5 178.098 187C178.198 189.1 177.598 191.2 176.298 192.9C175.098 194.3 173.298 195 170.898 195C169.898 195 168.998 194.8 168.098 194.5C167.298 194.2 166.498 193.7 165.998 193C165.398 192.4 164.898 191.6 164.598 190.8C164.298 189.9 164.098 189 164.098 188C164.098 187.5 164.098 187 164.198 186.5L164.498 185C164.598 184.5 164.798 184.1 164.898 183.6L165.498 182.4L161.498 180.1C161.098 180.7 160.798 181.3 160.498 182C160.198 182.7 159.898 183.3 159.698 184C159.498 184.7 159.298 185.5 159.098 186.2C158.998 186.9 158.898 187.5 158.898 188.2C158.898 189.6 159.098 191 159.598 192.3C160.098 193.6 160.898 194.8 161.798 195.7C162.898 196.8 164.198 197.6 165.598 198.1C167.398 198.7 169.198 199 171.098 199C172.898 199 174.598 198.7 176.298 198.1C177.698 197.5 178.998 196.7 180.098 195.5C181.198 194.4 181.998 193 182.498 191.6C183.098 190 183.398 188.4 183.298 186.7C183.198 186.1 183.098 185.4 182.998 184.8Z" fill="#002256"/>
<path d="M272.799 169.201C272.999 169.401 273.299 169.601 273.599 169.701C274.199 170.001 274.999 170.001 275.599 169.701C276.199 169.401 276.699 168.901 276.999 168.301C277.299 167.701 277.299 166.901 276.999 166.301C276.699 165.701 276.199 165.201 275.599 164.901C274.999 164.601 274.199 164.601 273.599 164.901C273.299 165.001 272.999 165.201 272.799 165.401C272.599 165.601 272.399 165.901 272.299 166.201C271.999 166.801 271.999 167.601 272.299 168.201C272.299 168.601 272.499 168.901 272.799 169.201Z" fill="#002256"/>
<path d="M307.198 162.401H302.098V186.001H288.498V183.001C288.498 181.701 288.298 180.301 287.998 179.001C287.698 177.801 287.198 176.701 286.398 175.801C285.698 174.901 284.698 174.101 283.698 173.601C282.498 173.101 281.098 172.801 279.798 172.801C278.498 172.801 277.298 173.001 276.098 173.401C274.998 173.801 273.898 174.301 272.898 175.001C271.898 175.701 270.998 176.501 270.198 177.401C269.398 178.301 268.698 179.301 267.998 180.201C267.398 181.101 266.798 182.101 266.298 183.101C265.798 183.901 265.398 184.801 265.098 185.701C264.298 185.701 263.498 185.601 262.798 185.401C261.998 185.301 261.198 185.001 260.598 184.501C260.598 184.101 260.698 183.801 260.698 183.401V178.001H255.698V183.001C255.698 183.501 255.698 183.901 255.598 184.401C255.498 184.701 255.398 185.001 255.198 185.301C254.998 185.501 254.698 185.701 254.398 185.801C253.998 185.901 253.698 185.901 253.298 185.901H221.598C220.098 185.901 218.598 185.601 217.198 185.001L216.698 184.801C216.798 184.401 216.898 184.101 216.898 183.701C216.998 183.301 216.998 182.901 216.998 182.501C216.998 181.801 216.898 181.201 216.798 180.501C216.698 179.801 216.498 179.101 216.098 178.501C215.798 177.801 215.398 177.201 214.898 176.601C214.398 176.001 213.898 175.501 213.298 175.101C212.698 174.601 211.898 174.301 211.198 174.101C210.298 173.801 209.498 173.701 208.598 173.701C207.798 173.701 207.098 173.801 206.398 174.101C205.498 174.401 204.598 174.901 203.798 175.501C202.798 176.401 201.898 177.401 201.198 178.601C200.198 180.201 199.498 182.001 199.098 183.801C198.798 185.001 197.698 185.801 196.498 185.801H194.698C194.398 185.801 193.998 185.801 193.698 185.701C193.398 185.601 193.198 185.401 192.998 185.201C192.798 184.901 192.698 184.601 192.598 184.201C192.498 183.701 192.398 183.201 192.398 182.601V162.301H187.398V183.701C187.398 184.601 187.498 185.501 187.798 186.301C187.998 187.001 188.398 187.701 188.898 188.201C189.398 188.801 189.998 189.301 190.798 189.601C191.698 189.901 192.598 190.101 193.498 190.101H197.098C199.098 190.201 200.998 189.301 202.098 187.601C202.498 187.901 202.898 188.201 203.298 188.601L204.798 189.501C205.398 189.801 206.098 190.001 206.698 190.101C207.498 190.301 208.298 190.301 209.098 190.301C210.298 190.301 211.498 190.101 212.598 189.601C213.598 189.201 214.398 188.601 215.198 187.801C215.198 187.801 217.398 190.101 219.798 190.101H255.098C255.998 190.101 256.998 189.901 257.798 189.501C258.498 189.201 259.098 188.701 259.598 188.001C260.498 188.801 261.598 189.301 262.798 189.601C264.298 189.901 265.798 190.101 267.298 190.101H307.298L307.198 162.401ZM212.098 184.401C211.898 184.901 211.598 185.301 211.198 185.601C210.798 185.901 210.298 186.101 209.798 186.201C208.798 186.501 207.798 186.501 206.798 186.301C206.298 186.201 205.898 186.101 205.398 185.901C204.998 185.801 204.598 185.601 204.198 185.401C203.898 185.301 203.598 185.101 203.398 184.901C203.598 184.101 203.798 183.201 204.098 182.501C204.398 181.701 204.698 181.001 205.198 180.301C205.598 179.701 205.998 179.201 206.598 178.801C207.098 178.401 207.698 178.201 208.398 178.201C208.998 178.201 209.598 178.401 210.198 178.701C210.698 179.001 211.098 179.401 211.498 179.901C211.798 180.401 212.098 180.901 212.298 181.401C212.398 181.901 212.498 182.401 212.598 182.901C212.398 183.301 212.298 183.901 212.098 184.401ZM283.598 186.001H270.098C270.498 184.801 271.098 183.601 271.698 182.601C272.298 181.601 272.998 180.601 273.798 179.801C274.498 179.001 275.398 178.301 276.298 177.801C277.098 177.301 277.998 177.101 278.898 177.101C279.498 177.101 280.098 177.201 280.698 177.401C281.298 177.601 281.798 178.001 282.198 178.501C282.698 179.101 282.998 179.801 283.198 180.501C283.498 181.501 283.598 182.501 283.598 183.601V186.001Z" fill="#002256"/>
<path d="M317.199 162.801H312.199V190.701H317.199V162.801Z" fill="#002256"/>
<path d="M436.802 197.201C436.902 196.901 437.002 196.501 437.002 196.201C437.002 195.901 436.902 195.501 436.802 195.201C436.602 194.601 436.102 194.101 435.502 193.901C434.902 193.601 434.202 193.601 433.602 193.901C433.302 194.001 433.002 194.201 432.802 194.401C432.602 194.601 432.402 194.901 432.302 195.201C432.202 195.501 432.102 195.901 432.102 196.201C432.102 196.501 432.202 196.901 432.302 197.201C432.602 197.801 433.102 198.301 433.702 198.601C434.302 198.901 435.102 198.901 435.702 198.601C436.202 198.301 436.602 197.801 436.802 197.201Z" fill="#002256"/>
<path d="M456.302 188.201C456.702 188.501 457.102 188.801 457.502 189.201L459.002 190.101C459.602 190.401 460.302 190.601 461.002 190.701C461.802 190.901 462.602 190.901 463.402 190.901C464.602 190.901 465.702 190.701 466.802 190.201C468.702 189.401 470.102 187.901 470.802 186.001C471.202 185.101 471.302 184.101 471.302 183.101C471.302 182.401 471.202 181.801 471.102 181.101C470.802 179.701 470.102 178.401 469.202 177.301C468.702 176.701 468.202 176.201 467.602 175.801C467.002 175.301 466.202 175.001 465.502 174.801C464.702 174.501 463.802 174.401 462.902 174.401C462.102 174.401 461.402 174.501 460.702 174.801C459.802 175.101 458.902 175.601 458.202 176.201C457.202 177.101 456.302 178.101 455.702 179.301C454.802 180.901 454.002 182.601 453.602 184.401C453.402 185.001 453.102 185.601 452.502 186.001C450.502 186.301 448.402 186.501 446.402 186.501H443.802C443.502 186.501 443.202 186.301 443.002 186.001C442.702 185.601 442.602 185.101 442.402 184.601C442.202 183.901 442.102 183.301 442.002 182.601C441.902 181.801 441.802 181.101 441.602 180.301C441.502 179.401 441.202 178.501 440.802 177.701C440.402 176.901 439.902 176.201 439.302 175.601C438.602 175.001 437.902 174.501 437.102 174.201C436.202 173.801 435.202 173.701 434.202 173.701C433.202 173.701 432.202 173.801 431.202 174.001C430.302 174.201 429.402 174.401 428.502 174.701V178.701C428.902 178.501 429.302 178.401 429.802 178.201C430.302 178.001 430.702 178.001 431.202 177.901C431.702 177.801 432.102 177.801 432.502 177.701C433.502 177.501 434.502 177.701 435.402 178.201C435.902 178.601 436.302 179.101 436.602 179.601C436.902 180.201 437.102 180.901 437.302 181.601C437.502 182.301 437.602 183.001 437.702 183.801C437.802 184.301 437.902 184.801 438.102 185.301C438.202 185.701 438.402 186.101 438.602 186.501H395.702C394.902 186.501 394.202 186.401 393.502 186.301C392.802 186.201 392.102 186.001 391.502 185.701C391.502 185.501 391.502 185.201 391.602 185.001V162.801H386.602V183.701C386.602 184.201 386.602 184.601 386.502 185.101C386.402 185.401 386.302 185.701 386.102 186.001C385.902 186.201 385.602 186.401 385.302 186.501C384.902 186.601 384.602 186.601 384.202 186.601H382.002C381.202 186.601 380.502 186.501 379.802 186.401C379.102 186.301 378.402 186.101 377.802 185.801C377.802 185.601 377.802 185.301 377.902 185.101V174.901H372.902V183.701C372.902 184.201 372.902 184.601 372.802 185.101C372.702 185.401 372.602 185.701 372.402 186.001C372.202 186.201 371.902 186.401 371.602 186.501C371.202 186.601 370.902 186.601 370.502 186.601C369.802 186.601 369.202 186.501 368.502 186.301C367.802 186.101 367.102 185.801 366.502 185.401V177.001H361.402V183.801C361.402 184.301 361.402 184.701 361.302 185.201C361.202 185.501 361.102 185.801 360.902 186.101C360.702 186.301 360.402 186.501 360.102 186.601C359.702 186.701 359.402 186.701 359.002 186.701C357.702 186.701 356.502 186.301 355.402 185.701L355.102 183.901C355.002 183.301 354.802 182.701 354.702 182.001C354.602 181.301 354.402 180.801 354.202 180.201C354.002 179.601 353.902 179.101 353.702 178.601L348.802 180.001C349.102 180.601 349.302 181.201 349.502 181.901C349.702 182.501 349.902 183.101 350.002 183.801L350.302 185.601C350.402 186.101 350.402 186.501 350.402 187.001C350.502 189.101 349.902 191.201 348.602 192.901C347.402 194.301 345.602 194.901 343.102 194.901C342.102 194.901 341.202 194.701 340.302 194.401C339.502 194.101 338.702 193.601 338.202 192.901C337.602 192.301 337.102 191.501 336.802 190.701C336.502 189.801 336.302 188.901 336.302 188.001C336.302 187.501 336.302 187.001 336.402 186.501L336.702 185.001C336.802 184.501 337.002 184.101 337.102 183.601L337.702 182.401L333.702 180.201C333.302 180.801 333.002 181.401 332.702 182.101C332.402 182.801 332.102 183.401 331.902 184.101C331.702 184.801 331.502 185.601 331.302 186.201C331.202 186.901 331.102 187.601 331.102 188.301C331.102 189.701 331.302 191.101 331.802 192.401C332.302 193.701 333.102 194.901 334.002 195.801C335.102 196.901 336.402 197.701 337.802 198.201C339.602 198.801 341.402 199.101 343.302 199.101C344.802 199.101 346.302 198.901 347.802 198.401C349.102 198.001 350.302 197.301 351.302 196.401C352.302 195.501 353.202 194.501 353.802 193.301C354.502 192.101 354.902 190.801 355.202 189.501C355.902 189.801 356.602 190.101 357.302 190.301C358.102 190.501 359.002 190.601 359.802 190.601H360.702C361.602 190.601 362.602 190.401 363.402 190.101C364.102 189.801 364.702 189.301 365.202 188.601C366.002 189.201 366.902 189.701 367.802 190.001C368.902 190.401 370.002 190.601 371.202 190.601H372.102C372.902 190.601 373.802 190.501 374.502 190.201C375.102 189.901 375.702 189.501 376.202 189.001C377.002 189.501 377.802 189.901 378.602 190.201C379.702 190.501 380.802 190.701 381.902 190.601H385.902C386.702 190.601 387.602 190.501 388.302 190.201C388.602 190.101 388.802 190.001 389.002 189.801C389.302 189.601 389.602 189.301 389.902 189.001C390.702 189.501 391.502 189.901 392.302 190.201C393.402 190.501 394.502 190.701 395.602 190.601H451.702C453.402 190.601 455.202 189.801 456.302 188.201ZM458.502 182.701C458.802 181.901 459.102 181.201 459.602 180.501C460.002 179.901 460.402 179.401 461.002 179.001C461.502 178.601 462.102 178.401 462.802 178.401C463.402 178.401 464.002 178.601 464.602 178.901C465.102 179.201 465.502 179.601 465.902 180.101C466.202 180.601 466.502 181.101 466.702 181.601C466.802 182.101 467.002 182.601 467.002 183.101C467.002 183.701 466.902 184.201 466.702 184.801C466.502 185.301 466.202 185.701 465.802 186.001C465.402 186.301 464.902 186.501 464.402 186.601C463.402 186.901 462.402 186.901 461.402 186.701C460.902 186.601 460.502 186.501 460.002 186.301C459.602 186.201 459.202 186.001 458.802 185.801C458.502 185.701 458.202 185.501 458.002 185.301C458.002 184.401 458.202 183.501 458.502 182.701Z" fill="#002256"/>
<path d="M440.002 48.7H349.502C332.102 48.7 318.102 62.9 318.102 80.2V88.9H303.002C302.702 73.4 290.002 61 274.502 60.9H270.002V84C269.702 86.8 267.402 89 264.502 89H252.602C251.302 63.4 229.502 43.8 203.902 45.1C180.202 46.3 161.202 65.3 160.002 89H147.602C145.202 89 144.402 88.4 144.202 88.2C144.202 88.2 143.402 87.4 143.402 83.9V29C143.402 13 130.502 0.1 114.502 0H110.102V92.4C110.102 101.1 112.002 107.7 115.902 112C119.902 116.5 126.202 118.9 134.802 118.9H153.202C154.402 118.9 155.502 118.9 156.702 118.7C157.102 118.7 157.502 118.6 158.102 118.6C160.702 118.4 163.202 117.9 165.602 117C166.102 116.8 166.502 116.7 167.002 116.5C180.502 138.1 208.902 144.9 230.602 131.5L231.202 131.1C231.402 131 231.602 130.8 231.802 130.7C237.602 127.1 242.502 122.2 246.102 116.4C246.502 116.6 247.002 116.8 247.502 116.9C249.302 117.5 251.202 118 253.102 118.3L255.502 118.6C257.402 118.8 259.402 118.8 261.302 118.9H268.202C271.802 118.9 275.502 118.8 279.102 118.4C281.802 118.2 284.402 117.4 286.802 116.1C289.202 117.5 291.802 118.3 294.502 118.4C297.802 118.7 301.702 118.9 306.302 118.9H439.702C457.102 118.9 471.102 104.8 471.102 87.4V80.3C471.402 63.1 457.602 48.9 440.402 48.6L440.002 48.7ZM226.402 93.1C226.202 104.7 216.602 113.9 205.002 113.7C193.402 113.5 184.202 103.9 184.402 92.3C184.602 80.7 194.202 71.5 205.802 71.7C216.402 71.9 225.302 80 226.302 90.6C226.402 91.4 226.402 92.3 226.402 93.1ZM436.502 92.3H353.402C348.702 92.4 344.802 88.7 344.602 84C344.502 79.3 348.202 75.3 353.002 75.2H436.402C441.102 75.2 445.002 79 445.002 83.8C445.002 88.6 441.202 92.3 436.502 92.3Z" fill="url(#paint1_linear_29436_165023)"/>
<path d="M49.9016 37.8003C57.2016 38.3003 63.4016 32.8003 63.9016 25.5003C64.4016 18.2003 58.9016 12.0003 51.6016 11.5003C44.3016 11.0003 38.1016 16.5003 37.6016 23.8003V25.6003C38.1016 32.1003 43.3016 37.3003 49.9016 37.8003Z" fill="url(#paint2_linear_29436_165023)"/>
<path d="M72.1 48.9004H67.8V87.7004C67.8 97.3004 60.1 105 50.5 105.1H50.1C40.6 104.8 33 97.0004 33 87.4004V78.0004C33 62.0004 20.1 49.1004 4.2 49.0004H0V87.3004C0 115.4 22.5 138.3 50.1 138.5H50.4C78.3 138.4 100.8 115.8 100.8 87.9004V87.8004V78.0004C101.1 62.2004 88.6 49.2004 72.9 48.9004H72.1Z" fill="url(#paint3_linear_29436_165023)"/>
</g>
<defs>
<linearGradient id="paint0_linear_29436_165023" x1="-3.21982" y1="25.0588" x2="470.49" y2="25.0588" gradientUnits="userSpaceOnUse">
<stop offset="0.01" stop-color="#0067B1"/>
<stop offset="0.17" stop-color="#056DB1"/>
<stop offset="0.39" stop-color="#157FB1"/>
<stop offset="0.65" stop-color="#2D9DB1"/>
<stop offset="0.9" stop-color="#4BC0B1"/>
</linearGradient>
<linearGradient id="paint1_linear_29436_165023" x1="-3.21844" y1="69.1792" x2="470.492" y2="69.1792" gradientUnits="userSpaceOnUse">
<stop offset="0.01" stop-color="#0067B1"/>
<stop offset="0.17" stop-color="#056DB1"/>
<stop offset="0.39" stop-color="#157FB1"/>
<stop offset="0.65" stop-color="#2D9DB1"/>
<stop offset="0.9" stop-color="#4BC0B1"/>
</linearGradient>
<linearGradient id="paint2_linear_29436_165023" x1="-3.21844" y1="24.6283" x2="470.492" y2="24.6283" gradientUnits="userSpaceOnUse">
<stop offset="0.01" stop-color="#1B6DB5"/>
<stop offset="0.19" stop-color="#1E73B2"/>
<stop offset="0.43" stop-color="#2885AB"/>
<stop offset="0.71" stop-color="#37A39F"/>
<stop offset="0.9" stop-color="#43BB95"/>
</linearGradient>
<linearGradient id="paint3_linear_29436_165023" x1="-3.22" y1="93.6801" x2="470.49" y2="93.6801" gradientUnits="userSpaceOnUse">
<stop offset="0.01" stop-color="#0067B1"/>
<stop offset="0.17" stop-color="#056DB1"/>
<stop offset="0.39" stop-color="#157FB1"/>
<stop offset="0.65" stop-color="#2D9DB1"/>
<stop offset="0.9" stop-color="#4BC0B1"/>
</linearGradient>
<clipPath id="clip0_29436_165023">
<rect width="471.2" height="241.4" fill="white"/>
</clipPath>
</defs>
</svg>
